<svg xmlns="http://www.w3.org/2000/svg" width="200" height="200" viewBox="0 0 200 200">
  <g id="Group_1" data-name="Group 1" transform="translate(-6768.838 3130.109)">
    <rect id="Rectangle_19" data-name="Rectangle 19" width="200" height="200" transform="translate(6768.838 -3130.109)" fill="#282832"/>
    <path id="Path_957" data-name="Path 957" d="M4375.7,169.94h-2.56c-.13,0-.21,0-.21-.23v-1.49c0-.21,0-.23.21-.23s.74.05,2.56.05h4.19c1.81,0,2.44-.05,2.56-.05s.23,0,.23.23v1.49c0,.21,0,.23-.23.23h-2.72v2h2.13c.13,0,.24,0,.24.21s-.05,1.09-.05,4V180c0,4.81.05,5.75.05,5.88s0,.23-.24.23h-1.27c-.23,0-.26,0-.26-.23v-.7h-5v1.07c0,.21,0,.23-.21.23h-1.32c-.21,0-.23,0-.23-.23v-14.1c0-.13,0-.21.23-.21h2.14v-2Zm1.74,3.67a22.177,22.177,0,0,1-.08,2.35,9.53,9.53,0,0,1-.88,3.19c-.07.12-.15.18-.21.18s-.17-.08-.26-.27a2.445,2.445,0,0,0-.67-.92v2h5v-1.76h-.77c-.59,0-.84-.06-1-.23a1.659,1.659,0,0,1-.31-1.2v-3.31Zm-2.1,4.3a4.864,4.864,0,0,0,.76-2.5v-1.8h-.8Zm5,5.45v-1.51h-5v1.51ZM4378.22,172v-2h-.78v2Zm1.34,1.66v2.18c0,.48,0,.61.06.71s.19.15.4.15h.31v-3Zm3.92-5.33c0-.2,0-.23.23-.23h7.07c.13,0,.25,0,.25.23s-.05.76-.05,2.25v4.72c0,1.48.05,2.11.05,2.24s0,.23-.25.23h-1.68c-.21,0-.23,0-.23-.23v-.71h-3.27v6.08c0,.48,0,.77.19.94s.62.27,1.57.27a3.069,3.069,0,0,0,2-.42c.37-.34.4-1,.48-2.74a4.706,4.706,0,0,0,1.43.58c.65.19.65.19.6.84-.12,1.91-.52,2.56-1,3s-1.56.76-3.53.76-2.83-.15-3.27-.55-.52-.75-.52-1.68V175c0-.13,0-.25.25-.25h5.19v-4.63h-5.18c-.13,0-.23,0-.23-.21Z" transform="translate(2432.278 -3250.159)" fill="#fff"/>
    <path id="Path_958" data-name="Path 958" d="M4396.13,175.77a18.166,18.166,0,0,1-1.241,1.68c-.14.19-.27.27-.37.27s-.17-.13-.23-.36a6.315,6.315,0,0,0-.67-1.8,20,20,0,0,0,3.62-6.75,7.263,7.263,0,0,0,.36-1.51,14.936,14.936,0,0,1,1.93.57c.25.08.35.18.35.31a.594.594,0,0,1-.23.38,2.244,2.244,0,0,0-.41.88c-.3.84-.63,1.7-1,2.56v14.34c0,.11,0,.23-.23.23h-1.74c-.19,0-.21,0-.21-.23v-3.19Zm6.35-2.66h-2.89c-.13,0-.23,0-.23-.25v-1.47c0-.23,0-.25.23-.25h13.29c.13,0,.25,0,.25.25v1.47c0,.23,0,.25-.25.25h-10.4Zm-1.67,13.4c-.21,0-.23,0-.23-.24v-6.08c0-.13,0-.21.23-.21s.81.05,2.74.05h5c1.9,0,2.57-.05,2.7-.05s.23,0,.23.21v6.02c0,.12,0,.21-.23.21h-1.74c-.21,0-.23,0-.23-.21v-.63h-6.56v.69c0,.21,0,.24-.23.24Zm3-16.44h-2.62c-.12,0-.23,0-.23-.23v-1.41c0-.21,0-.23.23-.23h9.73c.13,0,.25,0,.25.23v1.41c0,.21,0,.23-.25.23h-7.11Zm0,5.91h-2.6c-.12,0-.23,0-.23-.21v-1.38c0-.21,0-.23.23-.23h9.52c.13,0,.23,0,.23.23v1.38c0,.19,0,.21-.23.21h-6.92Zm0,2.89h-2.6c-.12,0-.23,0-.23-.24v-1.36c0-.21,0-.23.23-.23h9.52c.13,0,.23,0,.23.23v1.36c0,.21,0,.24-.23.24h-6.92Zm-1.13,4.93h6.56v-2h-6.56Z" transform="translate(2432.278 -3250.159)" fill="#fff"/>
    <path id="Path_959" data-name="Path 959" d="M4416.47,174c.11-.15.21-.25.4-.21a14.835,14.835,0,0,1,4,2.05c.14.11.23.19.23.32a.686.686,0,0,1-.09.23,8.007,8.007,0,0,1-.92,1.59c-.1.13-.189.21-.27.21a.39.39,0,0,1-.25-.12,18.524,18.524,0,0,0-4.241-2.29C4415.88,175,4416.22,174.37,4416.47,174Zm3.4,7.78a35.375,35.375,0,0,0,5.74-3.63,37.678,37.678,0,0,0,6-5.85,11,11,0,0,0,.609,2.35,1.109,1.109,0,0,1,.11.4.65.65,0,0,1-.24.48,38.809,38.809,0,0,1-5.32,4.84,48.854,48.854,0,0,1-6.27,3.95,6.93,6.93,0,0,0-1.22.71.478.478,0,0,1-.33.17.55.55,0,0,1-.42-.26,12.877,12.877,0,0,1-1.55-2.13,9.778,9.778,0,0,0,2.89-1Zm-.86-12.6c.15-.25.27-.3.52-.17a13.888,13.888,0,0,1,3.939,2.33.321.321,0,0,1,.17.27.5.5,0,0,1-.08.27,8.166,8.166,0,0,1-1.07,1.57.231.231,0,0,1-.21.13.551.551,0,0,1-.32-.15,20.154,20.154,0,0,0-4.061-2.58c.35-.51.75-1.1,1.1-1.64Z" transform="translate(2432.278 -3250.159)" fill="#fff"/>
    <path id="Path_960" data-name="Path 960" d="M4437.22,170.23a.411.411,0,0,1,.3-.16.559.559,0,0,1,.27.1,22.341,22.341,0,0,1,4,3c.12.13.18.21.18.29a.482.482,0,0,1-.12.28c-.32.41-1,1.25-1.3,1.57-.11.1-.17.17-.25.17a.461.461,0,0,1-.27-.17,22.168,22.168,0,0,0-4.28-3.42C4436.22,171.3,4436.83,170.65,4437.22,170.23Zm1.83,11.05a36.7,36.7,0,0,0,11.78-9.6,9.576,9.576,0,0,0,.59,2.45,1.124,1.124,0,0,1,.1.4,1,1,0,0,1-.33.63,34.726,34.726,0,0,1-4.82,4.45,45.977,45.977,0,0,1-6.33,4.11,6.906,6.906,0,0,0-1.41,1,.572.572,0,0,1-.38.21.52.52,0,0,1-.35-.23,14.178,14.178,0,0,1-1.68-2.33,12.258,12.258,0,0,0,2.83-1.09Z" transform="translate(2432.278 -3250.159)" fill="#fff"/>
    <path id="Path_961" data-name="Path 961" d="M4466.09,171.64a2,2,0,0,0,1-.25.472.472,0,0,1,.28-.09.63.63,0,0,1,.33.13,9.631,9.631,0,0,1,1.43,1.13.679.679,0,0,1,.27.48.578.578,0,0,1-.25.44,2.662,2.662,0,0,0-.689.91,29.123,29.123,0,0,1-4.15,6.47,26.78,26.78,0,0,1-6.38,5.23.57.57,0,0,1-.33.1.74.74,0,0,1-.49-.23,5.436,5.436,0,0,0-2-1,24.262,24.262,0,0,0,7-5.35,21.332,21.332,0,0,0,3.88-6l-5.07.15a29.685,29.685,0,0,1-4,4.3.661.661,0,0,1-.44.23.491.491,0,0,1-.32-.13,5.848,5.848,0,0,0-2-.9,25,25,0,0,0,5.641-6.22,9.073,9.073,0,0,0,1.24-2.84,10.125,10.125,0,0,1,2.45,1.12.4.4,0,0,1,0,.71,2.242,2.242,0,0,0-.53.57l-.69,1Zm2.6-2.83c.1-.08.19-.06.31,0a9.666,9.666,0,0,1,2,2.24.21.21,0,0,1-.06.34l-.88.65a.23.23,0,0,1-.36-.06,10.488,10.488,0,0,0-2.12-2.44Zm1.86-1.36c.13-.09.19-.07.32,0a8.77,8.77,0,0,1,2,2.16.25.25,0,0,1-.07.38l-.83.65a.22.22,0,0,1-.36-.07,10.006,10.006,0,0,0-2.1-2.41Z" transform="translate(2432.278 -3250.159)" fill="#fff"/>
    <path id="Path_962" data-name="Path 962" d="M4479.45,171.64c.36.1.4.36.27.65a3,3,0,0,0-.25,1.43,15.668,15.668,0,0,1-1.13,6.16,10.742,10.742,0,0,1-3,3.94.915.915,0,0,1-.54.27.729.729,0,0,1-.4-.16,7.2,7.2,0,0,0-1.78-.88,10.519,10.519,0,0,0,3.48-4.18c.59-1.42.86-2.58.88-5.93a5.567,5.567,0,0,0-.21-1.76,17.085,17.085,0,0,1,2.68.46Zm4.66,8.87a22.282,22.282,0,0,0,3-1.95,20.109,20.109,0,0,0,3.67-3.57,6.269,6.269,0,0,0,.65,2.12.917.917,0,0,1,.13.36c0,.15-.081.29-.32.52a25.96,25.96,0,0,1-3.1,2.75,34.438,34.438,0,0,1-3.729,2.52,6.089,6.089,0,0,0-.61.44.669.669,0,0,1-.42.16,1,1,0,0,1-.44-.16,6.361,6.361,0,0,1-1.26-1.28.926.926,0,0,1-.189-.44.714.714,0,0,1,.09-.32c.15-.27.12-.52.12-1.59v-6.56a16.674,16.674,0,0,0-.21-3.65,19.174,19.174,0,0,1,2.63.44c.27.06.37.19.37.35a1.386,1.386,0,0,1-.16.53,5.78,5.78,0,0,0-.19,2.33Z" transform="translate(2432.278 -3250.159)" fill="#fff"/>
    <path id="Path_963" data-name="Path 963" d="M4374.65,213.88h1.49v2.83h-3v-2.83l1.52-3.27H4376Zm4.13,0h1.49v2.83h-3v-2.83l1.53-3.27h1.32Z" transform="translate(2432.278 -3250.159)" fill="#fff"/>
    <path id="Path_964" data-name="Path 964" d="M4387.44,224.18a3.219,3.219,0,0,0,1.74,1.74,12,12,0,0,0,3.87.42c2.71,0,5.9-.13,9-.44a3.921,3.921,0,0,0-.57,1.57c-.12.67-.1.67-.77.71-2.66.15-5.16.19-7.34.19a14.422,14.422,0,0,1-4.91-.59,4,4,0,0,1-2-1.86,26.165,26.165,0,0,1-2.16,1.84,2.346,2.346,0,0,0-.42.42.34.34,0,0,1-.31.19c-.09,0-.21-.08-.3-.25a19.206,19.206,0,0,1-.86-2,9.376,9.376,0,0,0,1.241-.65,13.59,13.59,0,0,0,1.779-1.34V219.5h-2.53c-.11,0-.25,0-.25-.25V217.7c0-.21,0-.23.25-.23h4.41c.13,0,.23,0,.23.23v2Zm-1.31-9.42a.429.429,0,0,1-.27.15c-.06,0-.1,0-.16-.15a15.653,15.653,0,0,0-2.58-3.27c-.17-.14-.13-.21.1-.35l1.17-.8c.21-.15.28-.15.45,0a16.324,16.324,0,0,1,2.62,3.12c.12.17.06.23-.11.38Zm9.29,7.09a2.753,2.753,0,0,1-.1.38,6.667,6.667,0,0,1-3,3.63,1.281,1.281,0,0,1-.5.25c-.15,0-.26-.13-.47-.42a4.222,4.222,0,0,0-1.25-1.13,5.739,5.739,0,0,0,3.081-2.71h-3.69c-.12,0-.23,0-.23-.25v-3.87a8.533,8.533,0,0,0-.13-1.65c.78,0,1.43.06,2.08.12.19,0,.29.09.29.19a1.357,1.357,0,0,1-.12.42,3.4,3.4,0,0,0-.09,1V220h2.29a39.25,39.25,0,0,0,.12-4.13v-.69h-5.24c-.13,0-.23,0-.23-.23v-1.53c0-.21,0-.23.23-.23h6.71a13.871,13.871,0,0,0,1.35-2.47,7.077,7.077,0,0,0,.37-1.13,14.169,14.169,0,0,1,2.18.5c.19.06.32.15.32.29s-.11.24-.25.36a1.817,1.817,0,0,0-.4.44l-1.24,2h3.61c.13,0,.23,0,.23.23V215c0,.21,0,.23-.23.23h-5.29v.59c0,1.68,0,3.06-.1,4.23h2.47v-2.16a8.816,8.816,0,0,0-.12-1.67c.77,0,1.46.06,2.13.12.19,0,.28.09.28.21a1.072,1.072,0,0,1-.11.36,2.756,2.756,0,0,0-.1,1v3.79c0,.12,0,.25-.23.25h-2.75Zm-3.29-12.16a.366.366,0,0,1,.38.19,17.047,17.047,0,0,1,1.3,2.22c.061.15,0,.25-.229.34l-1.45.54c-.29.11-.33.06-.44-.19a10.975,10.975,0,0,0-1.189-2.18c-.15-.21-.15-.27.12-.38Z" transform="translate(2432.278 -3250.159)" fill="#fff"/>
    <path id="Path_965" data-name="Path 965" d="M4414.12,222.9c0-.73,0-1.78.07-2.62a14.954,14.954,0,0,1-1.62,1.44c-.21.17-.34.28-.44.28s-.19-.13-.29-.44a4.468,4.468,0,0,0-.76-1.49,19.606,19.606,0,0,0,4.36-4.57c.19-.32.4-.72.57-1.09a12.5,12.5,0,0,1,1.57,1c.19.17.25.26.25.38a.3.3,0,0,1-.14.23,1.347,1.347,0,0,0-.439.49c-.32.46-.63.92-1,1.36v10.71c0,.1,0,.23-.23.23h-1.78c-.21,0-.23,0-.23-.23V226Zm3.55-12.31c.18.15.29.23.29.38s-.13.23-.32.33a3.643,3.643,0,0,0-.56.59,20.476,20.476,0,0,1-4.05,3.59,1,1,0,0,1-.46.21c-.15,0-.23-.15-.4-.49a4.924,4.924,0,0,0-.94-1.3,16.616,16.616,0,0,0,4.11-3.37,6.262,6.262,0,0,0,.609-1,10.311,10.311,0,0,1,1.721,1.06Zm3.64,7.44c-2,0-2.68.05-2.83.05s-.23,0-.23-.23v-1.66c0-.21,0-.23.23-.23h11.62c.11,0,.23,0,.23.23v1.66c0,.21,0,.23-.23.23s-.8-.05-2.79-.05h-.44v4c0,1.86.06,3,.06,4a2.321,2.321,0,0,1-.71,2.1c-.459.4-1.259.48-3.31.5-.67,0-.67,0-.82-.65a5.417,5.417,0,0,0-.63-1.61c.86.06,1.49.08,2.26.08s.93-.15.93-.67V218Zm.84-5.17h-2.58c-.11,0-.23,0-.23-.23V211c0-.21,0-.23.23-.23h9.54c.12,0,.26,0,.26.23v1.68c0,.21,0,.23-.26.23h-2.6Z" transform="translate(2432.278 -3250.159)" fill="#fff"/>
    <path id="Path_966" data-name="Path 966" d="M4435.89,213.76l-1.53,3.27H4433l1.38-3.27h-1.49v-2.83h3Zm4.13,0-1.53,3.27h-1.32l1.38-3.27h-1.49v-2.83h3Z" transform="translate(2432.278 -3250.159)" fill="#fff"/>
    <path id="Path_967" data-name="Path 967" d="M4375.41,264.3a3.679,3.679,0,0,0,.32,1.63,2.926,2.926,0,0,0,.9,1.1,3.83,3.83,0,0,0,1.319.62,6.446,6.446,0,0,0,1.631.2,5.348,5.348,0,0,0,1.609-.22,3.377,3.377,0,0,0,1.09-.57,2.155,2.155,0,0,0,.6-.79,2.464,2.464,0,0,0,.18-.91,2,2,0,0,0-.43-1.4,2.332,2.332,0,0,0-.931-.63,18.76,18.76,0,0,0-2-.61l-2.87-.75a6.329,6.329,0,0,1-1.771-.73,4.241,4.241,0,0,1-1.12-1,3.8,3.8,0,0,1-.59-1.17,5,5,0,0,1-.17-1.27,4.264,4.264,0,0,1,.52-2.16,4.646,4.646,0,0,1,1.38-1.51,5.891,5.891,0,0,1,1.93-.89,8.811,8.811,0,0,1,4.63,0,6.13,6.13,0,0,1,2,1,4.741,4.741,0,0,1,1.88,3.91h-2.89a2.77,2.77,0,0,0-1.08-2.24,4.311,4.311,0,0,0-2.47-.66,5.215,5.215,0,0,0-1,.1,3.292,3.292,0,0,0-1,.35,2.189,2.189,0,0,0-.73.66,2,2,0,0,0,.26,2.41,3.488,3.488,0,0,0,1.42.75l.72.19,1.42.38,1.53.41c.5.13.86.22,1.08.29a4.823,4.823,0,0,1,1.4.69,4.563,4.563,0,0,1,1,1,4.158,4.158,0,0,1,.6,1.21,4.492,4.492,0,0,1,.19,1.3,4.71,4.71,0,0,1-.561,2.36,4.9,4.9,0,0,1-1.49,1.61,6.615,6.615,0,0,1-2.1.91,10.251,10.251,0,0,1-2.41.29,9.917,9.917,0,0,1-2.65-.35,6.281,6.281,0,0,1-2.17-1.06,5.169,5.169,0,0,1-1.48-1.84,6.2,6.2,0,0,1-.58-2.65Z" transform="translate(2432.278 -3250.159)" fill="#fff"/>
    <path id="Path_968" data-name="Path 968" d="M4388.75,257.87h2.49v1.62h0a3.284,3.284,0,0,1,1.55-1.49,5.1,5.1,0,0,1,2.14-.45,5.709,5.709,0,0,1,2.459.5,4.862,4.862,0,0,1,1.741,1.36,5.891,5.891,0,0,1,1,2,8.577,8.577,0,0,1,.351,2.47,8.674,8.674,0,0,1-.31,2.33,6,6,0,0,1-.95,2,4.547,4.547,0,0,1-1.6,1.38,4.682,4.682,0,0,1-2.28.52,6.453,6.453,0,0,1-1.15-.1,4.673,4.673,0,0,1-1.1-.34,4.371,4.371,0,0,1-1-.58,3.327,3.327,0,0,1-.75-.84h-.06v6h-2.62Zm9.18,6a5.827,5.827,0,0,0-.21-1.56,4.182,4.182,0,0,0-.62-1.35,3.216,3.216,0,0,0-1-.94,2.811,2.811,0,0,0-1.431-.36,2.919,2.919,0,0,0-2.509,1.15,5.089,5.089,0,0,0-.84,3.06,6.264,6.264,0,0,0,.22,1.67,3.866,3.866,0,0,0,.661,1.33,3.14,3.14,0,0,0,1.049.87,2.874,2.874,0,0,0,3.94-1,3.99,3.99,0,0,0,.58-1.33,7.129,7.129,0,0,0,.16-1.57Z" transform="translate(2432.278 -3250.159)" fill="#fff"/>
    <path id="Path_969" data-name="Path 969" d="M4405.43,264.51a4.615,4.615,0,0,0,.2,1.34,3.366,3.366,0,0,0,.589,1.13,2.821,2.821,0,0,0,1,.77,3.266,3.266,0,0,0,1.42.29,3.17,3.17,0,0,0,1.86-.5,2.919,2.919,0,0,0,1.05-1.5H4414a4.907,4.907,0,0,1-1.93,3,5.319,5.319,0,0,1-1.6.79,6.742,6.742,0,0,1-1.859.26,6.281,6.281,0,0,1-2.491-.46,5.233,5.233,0,0,1-1.83-1.29,5.513,5.513,0,0,1-1.129-2,8.149,8.149,0,0,1-.38-2.54,7.113,7.113,0,0,1,.41-2.4,6.235,6.235,0,0,1,1.151-2,5.661,5.661,0,0,1,6.729-1.29,5.485,5.485,0,0,1,1.85,1.56,6.224,6.224,0,0,1,1.08,2.22,6.8,6.8,0,0,1,.17,2.59Zm6.15-1.74a3.989,3.989,0,0,0-.27-1.19,3.018,3.018,0,0,0-1.52-1.69,2.82,2.82,0,0,0-1.21-.26,3.149,3.149,0,0,0-1.26.24,2.761,2.761,0,0,0-1,.67,3.216,3.216,0,0,0-.649,1,3.681,3.681,0,0,0-.271,1.24Z" transform="translate(2432.278 -3250.159)" fill="#fff"/>
    <path id="Path_970" data-name="Path 970" d="M4425,261.87a2.468,2.468,0,0,0-.89-1.67,2.911,2.911,0,0,0-1.84-.57,4,4,0,0,0-1.08.17,2.591,2.591,0,0,0-1.06.65,3.668,3.668,0,0,0-.81,1.31,6.361,6.361,0,0,0-.32,2.2,6.68,6.68,0,0,0,.169,1.47,4.1,4.1,0,0,0,.56,1.32,3,3,0,0,0,1,.93,2.741,2.741,0,0,0,1.45.36,2.66,2.66,0,0,0,1.9-.71,3.361,3.361,0,0,0,.939-2h2.621a5.772,5.772,0,0,1-1.771,3.55,5.38,5.38,0,0,1-3.689,1.23,6.2,6.2,0,0,1-2.48-.47,5.19,5.19,0,0,1-2.92-3.24,7.423,7.423,0,0,1-.379-2.44,8.19,8.19,0,0,1,.37-2.51,5.583,5.583,0,0,1,1.1-2,5.1,5.1,0,0,1,1.83-1.36,6.2,6.2,0,0,1,2.57-.5,7,7,0,0,1,2,.27,5.219,5.219,0,0,1,1.661.8A4.191,4.191,0,0,1,4427,260a4.7,4.7,0,0,1,.56,1.92Z" transform="translate(2432.278 -3250.159)" fill="#fff"/>
    <path id="Path_971" data-name="Path 971" d="M4430.36,253.34H4433v2.49h-2.62Zm0,4.53H4433V269.8h-2.62Z" transform="translate(2432.278 -3250.159)" fill="#fff"/>
    <path id="Path_972" data-name="Path 972" d="M4446.38,267.14a1.336,1.336,0,0,0,.13.69.53.53,0,0,0,.5.21h.27a1.8,1.8,0,0,0,.37-.05v1.82l-.36.11-.45.1-.46.07h-.39a2.611,2.611,0,0,1-1.34-.32,1.629,1.629,0,0,1-.69-1.13,4.589,4.589,0,0,1-1.92,1.11,7.61,7.61,0,0,1-2.209.34,5.261,5.261,0,0,1-1.541-.22,4,4,0,0,1-1.3-.64,3.076,3.076,0,0,1-.9-1.09,3.2,3.2,0,0,1-.339-1.53,3.53,3.53,0,0,1,.41-1.8,3,3,0,0,1,1.061-1.08,4.689,4.689,0,0,1,1.479-.56,14.913,14.913,0,0,1,1.65-.27c.48-.09.93-.16,1.36-.2a6.131,6.131,0,0,0,1.149-.19,1.64,1.64,0,0,0,.78-.43,1.179,1.179,0,0,0,.29-.86,1.359,1.359,0,0,0-.241-.83,1.7,1.7,0,0,0-.609-.49,2.2,2.2,0,0,0-.79-.23,6.375,6.375,0,0,0-.84-.06,3.309,3.309,0,0,0-1.83.46,1.839,1.839,0,0,0-.81,1.43h-2.62a4,4,0,0,1,.56-1.92,3.872,3.872,0,0,1,1.23-1.22,4.911,4.911,0,0,1,1.69-.64,9.6,9.6,0,0,1,1.939-.19,7.766,7.766,0,0,1,1.729.19,4.7,4.7,0,0,1,1.53.6,3.221,3.221,0,0,1,1.1,1.07,3,3,0,0,1,.41,1.6Zm-2.62-3.32a3.159,3.159,0,0,1-1.48.47c-.58.06-1.17.14-1.76.24a8.02,8.02,0,0,0-.81.2,2.242,2.242,0,0,0-.69.35,1.392,1.392,0,0,0-.47.57,1.924,1.924,0,0,0-.181.87,1.091,1.091,0,0,0,.26.73,1.912,1.912,0,0,0,.61.48,3.162,3.162,0,0,0,.79.24,5.646,5.646,0,0,0,.77.07,4.2,4.2,0,0,0,.95-.12,3.339,3.339,0,0,0,1-.39,2.509,2.509,0,0,0,.75-.7,1.8,1.8,0,0,0,.3-1.05Z" transform="translate(2432.278 -3250.159)" fill="#fff"/>
    <path id="Path_973" data-name="Path 973" d="M4450,253.34h2.62V269.8H4450Z" transform="translate(2432.278 -3250.159)" fill="#fff"/>
    <path id="Path_974" data-name="Path 974" d="M4465.38,264.3a3.679,3.679,0,0,0,.32,1.63,2.924,2.924,0,0,0,.9,1.1,3.824,3.824,0,0,0,1.319.62,6.439,6.439,0,0,0,1.63.2,5.4,5.4,0,0,0,1.61-.22,3.219,3.219,0,0,0,1.08-.57,2,2,0,0,0,.6-.79,2.288,2.288,0,0,0,.19-.91,2,2,0,0,0-.43-1.4,2.4,2.4,0,0,0-.931-.63,18.352,18.352,0,0,0-2.05-.61l-2.87-.75a6.393,6.393,0,0,1-1.76-.73,4.248,4.248,0,0,1-1.12-1,3.589,3.589,0,0,1-.59-1.17,5,5,0,0,1-.17-1.27,4.269,4.269,0,0,1,.52-2.16,4.62,4.62,0,0,1,1.37-1.51,6,6,0,0,1,1.94-.89,8.8,8.8,0,0,1,4.63,0,6.129,6.129,0,0,1,2,1,4.74,4.74,0,0,1,1.88,3.91h-2.89a2.75,2.75,0,0,0-1.089-2.24,4.25,4.25,0,0,0-2.46-.66,5.38,5.38,0,0,0-1,.1,3.327,3.327,0,0,0-1,.35,1.926,1.926,0,0,0-.48,3.07,3.62,3.62,0,0,0,1.42.75l.73.19,1.42.38,1.53.41c.5.13.86.22,1.07.29a4.878,4.878,0,0,1,1.41.69,4.3,4.3,0,0,1,1,1,4.351,4.351,0,0,1,.8,2.51,4.714,4.714,0,0,1-.56,2.36,4.9,4.9,0,0,1-1.49,1.61,6.577,6.577,0,0,1-2.109.91,10.1,10.1,0,0,1-2.4.29,9.871,9.871,0,0,1-2.65-.35,6.28,6.28,0,0,1-2.17-1.06,5.167,5.167,0,0,1-1.48-1.84,6.2,6.2,0,0,1-.579-2.65Z" transform="translate(2432.278 -3250.159)" fill="#fff"/>
    <path id="Path_975" data-name="Path 975" d="M4478.74,253.34h2.62v2.49h-2.62Zm0,4.53h2.62V269.8h-2.62Z" transform="translate(2432.278 -3250.159)" fill="#fff"/>
    <path id="Path_976" data-name="Path 976" d="M4483.6,257.87h2V254.3h2.62v3.57h2.38v2h-2.38v7.08a1.271,1.271,0,0,0,.169.51.74.74,0,0,0,.38.31,1.838,1.838,0,0,0,.69.11h.55a3.6,3.6,0,0,0,.561-.08v2l-.86.09a7.373,7.373,0,0,1-2.521-.14,2.281,2.281,0,0,1-1-.58,1.9,1.9,0,0,1-.48-1,6.257,6.257,0,0,1-.15-1.31v-7h-2Z" transform="translate(2432.278 -3250.159)" fill="#fff"/>
    <path id="Path_977" data-name="Path 977" d="M4494.82,264.51a4.644,4.644,0,0,0,.19,1.34,3.366,3.366,0,0,0,.589,1.13,2.821,2.821,0,0,0,1,.77,3.279,3.279,0,0,0,1.43.29,3.141,3.141,0,0,0,1.85-.5,2.913,2.913,0,0,0,1.05-1.5h2.49a4.8,4.8,0,0,1-.71,1.74,4.993,4.993,0,0,1-1.22,1.28,5.309,5.309,0,0,1-1.6.79,6.69,6.69,0,0,1-1.86.26,6.23,6.23,0,0,1-2.479-.46,5.058,5.058,0,0,1-1.83-1.29,5.37,5.37,0,0,1-1.13-2,7.879,7.879,0,0,1-.38-2.54,7.12,7.12,0,0,1,.4-2.4,6.24,6.24,0,0,1,1.149-2,5.431,5.431,0,0,1,4.21-1.88,5.349,5.349,0,0,1,2.52.59,5.536,5.536,0,0,1,1.86,1.56,6.186,6.186,0,0,1,1.07,2.22,6.8,6.8,0,0,1,.17,2.59Zm6.14-1.74a4.362,4.362,0,0,0-.26-1.19,3.153,3.153,0,0,0-.609-1,3,3,0,0,0-.92-.69,2.818,2.818,0,0,0-1.21-.26,3.219,3.219,0,0,0-1.26.24,2.757,2.757,0,0,0-1,.67,3.219,3.219,0,0,0-.65,1,3.434,3.434,0,0,0-.26,1.24Z" transform="translate(2432.278 -3250.159)" fill="#fff"/>
  </g>
</svg>
