<svg xmlns="http://www.w3.org/2000/svg" width="35.88" height="29.138" viewBox="0 0 35.88 29.138">
  <path id="Path_51" data-name="Path 51" d="M3701.35,1321.65v.95c0,9.73-7.4,20.94-20.95,20.94a20.831,20.831,0,0,1-11.28-3.3,14.6,14.6,0,0,0,1.76.1,14.811,14.811,0,0,0,9.14-3.15,7.38,7.38,0,0,1-6.88-5.11,7.883,7.883,0,0,0,1.39.13,7.321,7.321,0,0,0,1.939-.26,7.37,7.37,0,0,1-5.91-7.22v-.09a7.37,7.37,0,0,0,3.34.92,7.361,7.361,0,0,1-3.28-6.13,7.268,7.268,0,0,1,1-3.7,20.871,20.871,0,0,0,15.17,7.69,7.719,7.719,0,0,1-.19-1.68,7.36,7.36,0,0,1,12.74-5,14.842,14.842,0,0,0,4.67-1.79,7.38,7.38,0,0,1-3.24,4.07,14.327,14.327,0,0,0,4.23-1.16,14.806,14.806,0,0,1-3.65,3.79Z" transform="translate(-3669.12 -1314.402)" fill="#fff" fill-rule="evenodd"/>
</svg>
