<svg xmlns="http://www.w3.org/2000/svg" width="39.68" height="27.77" viewBox="0 0 39.68 27.77">
  <path id="Exclusion_1" data-name="Exclusion 1" d="M474.47-909.63c-.124,0-12.445-.009-15.5-.83a5.017,5.017,0,0,1-3.51-3.5c-.821-3.064-.831-9.485-.831-9.55s.009-6.5.83-9.56a5.021,5.021,0,0,1,3.511-3.5c3.054-.82,15.376-.83,15.5-.83s12.445.009,15.5.83a5.02,5.02,0,0,1,3.51,3.5c.82,3.064.83,9.5.83,9.56s-.009,6.486-.83,9.55a5.02,5.02,0,0,1-3.51,3.5C486.915-909.639,474.594-909.63,474.47-909.63Zm-3.97-19.84v11.91l10.31-5.95-10.31-5.96Z" transform="translate(-454.63 937.4)" fill="#fff"/>
</svg>
