<svg xmlns="http://www.w3.org/2000/svg" width="37.43" height="37.43" viewBox="0 0 37.43 37.43">
  <g id="Group_33" data-name="Group 33" transform="translate(-3982.84 -1345.44)">
    <path id="Path_53" data-name="Path 53" d="M3878.93,1313.21c5,0,5.59,0,7.56.11a10.478,10.478,0,0,1,3.48.64,6.19,6.19,0,0,1,3.55,3.56,10.452,10.452,0,0,1,.64,3.47c.09,2,.11,2.57.11,7.57s0,5.59-.11,7.56a10.459,10.459,0,0,1-.64,3.47,6.188,6.188,0,0,1-3.55,3.56,10.478,10.478,0,0,1-3.48.64c-2,.09-2.56.11-7.56.11s-5.59,0-7.57-.11a10.461,10.461,0,0,1-3.47-.64,6.191,6.191,0,0,1-3.55-3.56,10.387,10.387,0,0,1-.651-3.47c-.09-2-.11-2.57-.11-7.56s0-5.59.11-7.57a10.393,10.393,0,0,1,.65-3.47,6.19,6.19,0,0,1,3.55-3.56,10.458,10.458,0,0,1,3.47-.64c2-.09,2.57-.11,7.57-.11m0-3.37c-5.09,0-5.72,0-7.72.11a13.766,13.766,0,0,0-4.54.87,9.56,9.56,0,0,0-5.479,5.48,13.756,13.756,0,0,0-.871,4.54c-.09,2-.11,2.63-.11,7.72s0,5.72.11,7.71a13.854,13.854,0,0,0,.87,4.55,9.58,9.58,0,0,0,5.48,5.47,13.77,13.77,0,0,0,4.54.87c2,.09,2.63.11,7.72.11s5.72,0,7.71-.11a13.773,13.773,0,0,0,4.55-.87,9.61,9.61,0,0,0,5.47-5.47,13.821,13.821,0,0,0,.871-4.55c.089-2,.109-2.63.109-7.71s0-5.72-.11-7.72a13.756,13.756,0,0,0-.87-4.54,9.58,9.58,0,0,0-5.47-5.48,13.778,13.778,0,0,0-4.55-.87C3884.64,1309.86,3884.01,1309.84,3878.93,1309.84Z" transform="translate(122.63 35.6)" fill="#fff"/>
    <path id="Path_54" data-name="Path 54" d="M3878.93,1318.94a9.62,9.62,0,1,0,9.61,9.62A9.62,9.62,0,0,0,3878.93,1318.94Zm0,15.85a6.23,6.23,0,1,1,4.411-1.821,6.24,6.24,0,0,1-4.411,1.821Z" transform="translate(122.63 35.6)" fill="#fff"/>
    <circle id="Ellipse_16" data-name="Ellipse 16" cx="2.25" cy="2.25" r="2.25" transform="translate(4009.3 1351.91)" fill="#fff"/>
  </g>
</svg>
